<?xml version="1.0" encoding="UTF-8" standalone="no"?>
<!-- Created with Inkscape (http://www.inkscape.org/) -->

<svg
   xmlns:dc="http://purl.org/dc/elements/1.1/"
   xmlns:cc="http://creativecommons.org/ns#"
   xmlns:rdf="http://www.w3.org/1999/02/22-rdf-syntax-ns#"
   xmlns:svg="http://www.w3.org/2000/svg"
   xmlns="http://www.w3.org/2000/svg"
   xmlns:sodipodi="http://sodipodi.sourceforge.net/DTD/sodipodi-0.dtd"
   xmlns:inkscape="http://www.inkscape.org/namespaces/inkscape"
   width="210mm"
   height="297mm"
   viewBox="0 0 744.09448819 1052.3622047"
   id="svg2"
   version="1.1"
   inkscape:version="0.91 r13725"
   sodipodi:docname="logo_large.svg"
   inkscape:export-filename="/home/fooker/devl/adacta/resources/logo_large.png"
   inkscape:export-xdpi="100.19892"
   inkscape:export-ydpi="100.19892">
  <defs
     id="defs4" />
  <sodipodi:namedview
     id="base"
     pagecolor="#ffffff"
     bordercolor="#666666"
     borderopacity="1.0"
     inkscape:pageopacity="0.0"
     inkscape:pageshadow="2"
     inkscape:zoom="0.9899495"
     inkscape:cx="353.21196"
     inkscape:cy="558.94638"
     inkscape:document-units="px"
     inkscape:current-layer="layer1"
     showgrid="false"
     showguides="true"
     inkscape:guide-bbox="true"
     inkscape:window-width="1920"
     inkscape:window-height="1060"
     inkscape:window-x="0"
     inkscape:window-y="20"
     inkscape:window-maximized="0" />
  <metadata
     id="metadata7">
    <rdf:RDF>
      <cc:Work
         rdf:about="">
        <dc:format>image/svg+xml</dc:format>
        <dc:type
           rdf:resource="http://purl.org/dc/dcmitype/StillImage" />
        <dc:title></dc:title>
      </cc:Work>
    </rdf:RDF>
  </metadata>
  <g
     inkscape:label="Layer 1"
     inkscape:groupmode="layer"
     id="layer1">
    <g
       id="g4202">
      <g
         transform="matrix(4.9580644,0,0,4.9580644,-290.91773,-1927.5267)"
         id="g4191">
        <rect
           style="fill:#1d5b6a;fill-opacity:1;stroke:none;stroke-width:0.5;stroke-linejoin:miter;stroke-miterlimit:4;stroke-dasharray:none;stroke-opacity:1"
           id="rect4244-2-4"
           width="34.464287"
           height="34.464287"
           x="73.75"
           y="452.27292"
           ry="3.0357056" />
        <path
           inkscape:connector-curvature="0"
           style="fill:#216778;fill-opacity:1;stroke:none;stroke-width:0.5;stroke-linejoin:miter;stroke-miterlimit:4;stroke-dasharray:none;stroke-opacity:1"
           d="m 76.785156,452.27344 c -1.681781,0 -3.035156,1.35337 -3.035156,3.03515 l 0,18.79102 c 1.479841,-0.69411 2.994328,-1.42041 4.244141,-1.89649 1.794449,-0.68353 3.367553,-1.16077 4.767578,-1.48632 1.400025,-0.32556 2.626926,-0.49876 3.726562,-0.57422 1.099637,-0.0755 2.071559,-0.0531 2.964844,0.0137 1.786571,0.1335 3.255864,0.44297 4.78125,0.49805 0.762693,0.0275 1.538501,-0.008 2.376953,-0.16211 0.838452,-0.15389 1.7398,-0.42595 2.748047,-0.86914 3.634685,-1.59769 6.521175,-2.56996 8.855465,-3.30469 l 0,-11.00977 c 0,-1.68178 -1.35532,-3.03515 -3.03711,-3.03515 l -28.392574,0 z"
           id="rect4244" />
        <rect
           style="fill:none;fill-opacity:1;stroke:#ffffff;stroke-width:0.5;stroke-linejoin:miter;stroke-miterlimit:4;stroke-dasharray:none;stroke-opacity:1"
           id="rect4244-2"
           width="34.464287"
           height="34.464287"
           x="73.75"
           y="452.27292"
           ry="3.0357056" />
      </g>
      <g
         transform="matrix(4.9580644,0,0,4.9580644,-280.54567,-1931.3322)"
         id="g4246">
        <g
           transform="translate(0,0.02759514)"
           style="font-style:normal;font-variant:normal;font-weight:normal;font-stretch:normal;font-size:40px;line-height:125%;font-family:'Droid Sans';-inkscape-font-specification:'Droid Sans';letter-spacing:0px;word-spacing:0px;fill:#ffffff;fill-opacity:1;stroke:none;stroke-width:1px;stroke-linecap:butt;stroke-linejoin:miter;stroke-opacity:1"
           id="text3336-0">
          <path
             style="fill:#ffffff"
             d="m 94.160163,484.59436 -3.125,-8.84766 -9.305249,0.35714 c -1.01439,-6.43677 2.000669,-20.02316 2.000669,-20.02316 1.026572,-0.28132 3.6327,-0.1582 3.6327,-0.1582 l 10.50781,28.67188 z m -4.27735,-12.07032 -2.89062,-8.28125 c -0.0781,-0.23437 -0.17578,-0.52083 -0.29297,-0.85937 -0.10417,-0.33854 -0.21484,-0.70312 -0.33203,-1.09375 -0.11719,-0.39063 -0.23437,-0.79427 -0.35156,-1.21094 -0.11719,-0.42969 -0.22787,-0.84635 -0.33204,-1.25 -0.0911,0.40365 -0.19531,0.82031 -0.3125,1.25 -1.11655,3.85839 -1.351063,8.18764 -2.55859,11.71317 z"
             id="path4197"
             inkscape:connector-curvature="0"
             sodipodi:nodetypes="cccsccccccsccccc" />
        </g>
        <g
           id="g4190"
           transform="matrix(1.0496256,0,0,1.0496256,5.6388881,-17.026084)">
          <rect
             ry="0.53571427"
             y="450.13007"
             x="70.758934"
             height="28.258928"
             width="6.1607141"
             id="rect3382"
             style="fill:#00d455" />
          <rect
             y="451.87112"
             x="71.629471"
             height="16.785715"
             width="4.4196429"
             id="rect3384"
             style="fill:#f9f9f9;stroke:#e6e6e6;stroke-width:0.1;stroke-linejoin:miter;stroke-miterlimit:4;stroke-dasharray:none" />
          <ellipse
             ry="1.3839285"
             rx="1.3392857"
             cy="471.24612"
             cx="73.839294"
             id="path3386"
             style="fill:#4d4d4d;stroke:#cccccc;stroke-width:0.2;stroke-miterlimit:4;stroke-dasharray:none" />
          <rect
             y="452.98721"
             x="71.629471"
             height="1.9196428"
             width="4.4196429"
             id="rect3388"
             style="fill:#1a1a1a" />
        </g>
      </g>
    </g>
    <text
       xml:space="preserve"
       style="font-style:normal;font-weight:normal;font-size:150px;line-height:125%;font-family:sans-serif;letter-spacing:0px;word-spacing:0px;fill:#000000;fill-opacity:1;stroke:none;stroke-width:1px;stroke-linecap:butt;stroke-linejoin:miter;stroke-opacity:1"
       x="261.46277"
       y="456.55963"
       id="text4198"
       sodipodi:linespacing="125%"><tspan
         sodipodi:role="line"
         id="tspan4200"
         x="261.46277"
         y="456.55963"
         style="font-style:normal;font-variant:normal;font-weight:normal;font-stretch:normal;font-size:150px;font-family:'Droid Sans';-inkscape-font-specification:'Droid Sans';letter-spacing:-4px;fill:#ffffff">adacta</tspan></text>
  </g>
</svg>
